<?xml version="1.0" encoding="utf-8"?>
<!-- Generator: Adobe Illustrator 19.0.0, SVG Export Plug-In . SVG Version: 6.00 Build 0)  -->
<svg version="1.1" id="レイヤー_1" xmlns="http://www.w3.org/2000/svg" xmlns:xlink="http://www.w3.org/1999/xlink" x="0px"
	 y="0px" viewBox="0 0 268 263.7" style="enable-background:new 0 0 268 263.7;" xml:space="preserve">
<g id="XMLID_4_">
	<path id="XMLID_5_" d="M147.1,13.3l-2.8-0.2l-0.6,9.2c0,0.5-0.2,0.9-0.4,1.2c-0.3,0.2-0.6,0.3-0.9,0.3c-0.4,0-0.7-0.2-0.9-0.4
		c-0.2-0.3-0.3-0.7-0.3-1.2l0.6-9.2l-2.8-0.2c-0.4,0-0.8-0.1-1-0.4s-0.3-0.5-0.3-0.8c0-0.3,0.1-0.6,0.4-0.8c0.2-0.2,0.6-0.2,1-0.2
		l8.1,0.5c0.4,0,0.8,0.1,1,0.4c0.2,0.2,0.3,0.5,0.3,0.8c0,0.3-0.1,0.6-0.4,0.7C147.9,13.2,147.6,13.3,147.1,13.3z"/>
	<path id="XMLID_7_" d="M152.4,21l-2.7-0.4c-0.4-0.1-0.7-0.2-0.9-0.4s-0.3-0.5-0.2-0.8c0-0.3,0.2-0.5,0.4-0.7c0.2-0.2,0.6-0.2,1-0.2
		l2.7,0.4c0.4,0.1,0.7,0.2,0.9,0.4c0.2,0.2,0.2,0.5,0.2,0.8c0,0.3-0.2,0.5-0.4,0.7C153.1,21,152.8,21.1,152.4,21z"/>
	<path id="XMLID_9_" d="M164.8,23.3c-0.2,0.7-0.5,1.4-1,1.9c-0.5,0.5-1.2,0.8-2,1c-0.8,0.2-1.7,0.1-2.7-0.1
		c-1.2-0.3-2.2-0.7-2.9-1.4c-0.5-0.5-0.8-1-1.1-1.6c-0.2-0.6-0.3-1.2-0.2-1.7c0.1-0.3,0.2-0.5,0.5-0.7c0.3-0.2,0.6-0.2,0.9-0.1
		c0.3,0.1,0.5,0.2,0.6,0.4c0.1,0.2,0.2,0.5,0.3,0.9c0.1,0.4,0.2,0.8,0.3,1.1c0.1,0.3,0.3,0.6,0.6,0.8c0.3,0.2,0.7,0.4,1.2,0.5
		c0.7,0.2,1.4,0.1,1.9-0.1c0.5-0.2,0.9-0.6,1-1.1c0.1-0.4,0-0.8-0.2-1.1c-0.2-0.3-0.5-0.6-0.8-0.8c-0.4-0.2-0.9-0.5-1.5-0.8
		c-0.8-0.4-1.5-0.8-2.1-1.2c-0.5-0.4-0.9-0.9-1.2-1.5c-0.2-0.6-0.3-1.2-0.1-1.9c0.2-0.7,0.5-1.2,1-1.7c0.5-0.4,1.1-0.7,1.9-0.9
		c0.8-0.1,1.6-0.1,2.6,0.1c0.8,0.2,1.4,0.4,1.9,0.7c0.5,0.3,0.9,0.7,1.2,1.1c0.3,0.4,0.5,0.8,0.6,1.2c0.1,0.4,0.1,0.7,0,1.1
		c-0.1,0.3-0.2,0.5-0.5,0.7c-0.3,0.2-0.6,0.3-0.9,0.2c-0.3-0.1-0.5-0.2-0.6-0.4c-0.1-0.2-0.2-0.4-0.3-0.8c-0.1-0.5-0.3-0.9-0.6-1.3
		c-0.3-0.3-0.7-0.6-1.4-0.7c-0.6-0.1-1.2-0.1-1.7,0.1c-0.5,0.2-0.7,0.5-0.8,0.9c-0.1,0.2,0,0.5,0.1,0.7c0.1,0.2,0.2,0.4,0.5,0.6
		c0.2,0.2,0.4,0.3,0.6,0.5c0.2,0.1,0.6,0.3,1.1,0.6c0.7,0.3,1.2,0.6,1.8,1c0.5,0.3,0.9,0.7,1.3,1c0.3,0.4,0.6,0.8,0.7,1.3
		C165,22.1,165,22.7,164.8,23.3z"/>
	<path id="XMLID_11_" d="M171.4,17.4l-1.1,3.3c0.4-0.2,0.8-0.4,1.1-0.5c0.3-0.1,0.7-0.1,1-0.1c0.4,0,0.7,0.1,1.1,0.2
		c0.6,0.2,1,0.5,1.4,0.9c0.4,0.4,0.6,0.8,0.7,1.4c0.1,0.3,0.1,0.7,0,1c-0.1,0.3-0.2,0.7-0.3,1.2l-1.4,4.3c-0.1,0.4-0.4,0.8-0.6,0.9
		c-0.3,0.2-0.6,0.2-0.9,0.1c-0.7-0.2-1-0.8-0.7-1.7l1.2-3.8c0.2-0.7,0.3-1.3,0.2-1.8c-0.1-0.5-0.4-0.8-1-1c-0.4-0.1-0.8-0.1-1.2,0
		c-0.4,0.1-0.7,0.4-1,0.7c-0.2,0.3-0.5,0.9-0.8,1.7l-1,3c-0.1,0.4-0.4,0.7-0.6,0.9c-0.3,0.2-0.6,0.2-0.9,0.1c-0.7-0.2-1-0.8-0.7-1.7
		l3.2-9.7c0.1-0.5,0.4-0.8,0.6-0.9c0.3-0.2,0.6-0.2,0.9-0.1c0.4,0.1,0.6,0.3,0.7,0.6C171.5,16.5,171.5,16.9,171.4,17.4z"/>
	<path id="XMLID_13_" d="M180.7,24.4l-2.6,6.3c-0.2,0.4-0.4,0.7-0.7,0.9c-0.3,0.1-0.6,0.1-0.9,0s-0.5-0.4-0.6-0.7
		c-0.1-0.3-0.1-0.7,0.1-1.1l2.5-6.2c0.2-0.4,0.4-0.7,0.7-0.9c0.3-0.1,0.6-0.1,0.9,0c0.3,0.1,0.5,0.3,0.7,0.6
		C180.9,23.7,180.9,24,180.7,24.4z M180.6,21.7c-0.3-0.1-0.5-0.3-0.7-0.6c-0.1-0.3-0.1-0.6,0-0.9c0.1-0.3,0.3-0.5,0.6-0.6
		c0.3-0.1,0.6-0.1,0.9,0c0.3,0.1,0.5,0.3,0.6,0.6c0.1,0.3,0.1,0.6,0,0.9c-0.1,0.3-0.4,0.6-0.6,0.7C181.1,21.8,180.9,21.8,180.6,21.7
		z"/>
	<path id="XMLID_16_" d="M183.3,30.8l-0.8,1.8c-0.2,0.4-0.5,0.7-0.8,0.8c-0.3,0.1-0.6,0.1-0.9,0c-0.3-0.1-0.5-0.4-0.6-0.7
		c-0.1-0.3,0-0.7,0.2-1.1l2.8-5.9c0.5-1,1-1.3,1.7-0.9c0.4,0.2,0.6,0.4,0.6,0.7c0.1,0.3,0,0.7-0.2,1.1c0.5-0.3,0.9-0.5,1.3-0.6
		c0.4-0.1,0.8,0,1.2,0.2c0.4,0.2,0.8,0.5,1.1,1c0.3,0.4,0.4,0.8,0.2,1.2c-0.1,0.3-0.3,0.4-0.6,0.5c-0.3,0.1-0.5,0.1-0.7,0
		c-0.1,0-0.2-0.2-0.5-0.4c-0.3-0.2-0.5-0.4-0.7-0.5c-0.3-0.1-0.6-0.2-0.9-0.1c-0.3,0.1-0.5,0.2-0.8,0.5c-0.3,0.3-0.5,0.6-0.8,1
		C183.8,29.7,183.6,30.2,183.3,30.8z"/>
	<path id="XMLID_18_" d="M191.1,28.1l0.2,0.1L192,27c0.2-0.3,0.3-0.6,0.5-0.8c0.1-0.2,0.3-0.3,0.4-0.4c0.2-0.1,0.3-0.1,0.5-0.2
		c0.2,0,0.4,0,0.6,0.1c0.3,0.1,0.4,0.4,0.5,0.7c0.1,0.2,0.1,0.4,0,0.6c-0.1,0.2-0.2,0.5-0.4,0.8l-0.8,1.4l0.8,0.4
		c0.3,0.2,0.5,0.4,0.6,0.6c0.1,0.2,0.1,0.4-0.1,0.7c-0.2,0.3-0.4,0.4-0.6,0.4s-0.6-0.1-1-0.4l-0.4-0.2l-2.1,3.8
		c-0.2,0.3-0.3,0.6-0.4,0.8c-0.1,0.2-0.1,0.4-0.1,0.5c0,0.2,0.2,0.3,0.4,0.4c0.1,0.1,0.3,0.1,0.5,0.2c0.2,0.1,0.4,0.1,0.5,0.2
		c0.2,0.1,0.3,0.2,0.3,0.4c0.1,0.2,0,0.4-0.1,0.6c-0.2,0.3-0.5,0.5-1,0.5c-0.5,0-1-0.2-1.7-0.6c-0.6-0.4-1.1-0.7-1.3-1.1
		c-0.2-0.4-0.3-0.8-0.2-1.3c0.1-0.4,0.3-1,0.7-1.6l2.2-4l-0.3-0.2c-0.3-0.2-0.5-0.4-0.6-0.6c-0.1-0.2-0.1-0.4,0.1-0.7
		c0.1-0.2,0.3-0.3,0.5-0.4C190.5,27.8,190.8,27.9,191.1,28.1z"/>
	<path id="XMLID_20_" d="M207.7,34.2c1.1,0.8,1.8,1.7,2.2,2.6c0.4,1,0.6,2,0.4,3.1c-0.2,1.1-0.7,2.1-1.5,3.2
		c-0.6,0.8-1.2,1.4-1.9,1.9c-0.7,0.5-1.4,0.8-2.2,1c-0.8,0.2-1.6,0.1-2.4-0.1s-1.6-0.6-2.4-1.2c-0.8-0.6-1.4-1.2-1.9-2
		c-0.4-0.7-0.7-1.5-0.8-2.2s0-1.6,0.3-2.4c0.3-0.8,0.7-1.6,1.2-2.4c0.6-0.8,1.2-1.4,1.9-1.9c0.7-0.5,1.4-0.8,2.2-1
		c0.8-0.1,1.5-0.1,2.3,0.1C206.2,33.2,206.9,33.6,207.7,34.2z M206.8,41.6c0.5-0.7,0.9-1.5,1.1-2.2c0.2-0.7,0.1-1.4-0.1-2
		c-0.2-0.6-0.7-1.1-1.2-1.5c-0.4-0.3-0.9-0.5-1.3-0.6c-0.5-0.1-0.9-0.1-1.4,0c-0.5,0.1-0.9,0.3-1.4,0.7c-0.5,0.4-0.9,0.8-1.4,1.4
		c-0.4,0.6-0.7,1.2-0.9,1.7c-0.2,0.6-0.3,1.1-0.2,1.6c0,0.5,0.2,1,0.4,1.4c0.2,0.4,0.6,0.8,1,1.1c0.5,0.4,1.1,0.6,1.7,0.7
		c0.6,0.1,1.3-0.1,2-0.4C205.6,42.9,206.2,42.4,206.8,41.6z"/>
	<path id="XMLID_23_" d="M211.3,52.7l0.8-3.9l-1.8,0l-1.3,1.4c-0.3,0.3-0.6,0.5-1,0.5s-0.6-0.1-0.9-0.3c-0.3-0.2-0.4-0.5-0.4-0.8
		c0-0.3,0.2-0.7,0.5-1l6.8-7.4c0.4-0.4,0.7-0.6,1-0.7c0.3-0.1,0.6,0,0.9,0.3c0.3,0.2,0.4,0.5,0.4,0.9c0,0.3-0.2,0.7-0.5,1l-3.8,4.2
		l3.8-0.3c0.5,0,0.8,0,1,0c0.2,0,0.4,0.1,0.6,0.3c0.2,0.2,0.3,0.4,0.4,0.7c0,0.3-0.1,0.5-0.3,0.7c-0.2,0.3-0.8,0.4-1.6,0.4l-1.7,0
		l-0.8,4.4c-0.1,0.3-0.1,0.6-0.1,0.7c0,0.2-0.1,0.3-0.2,0.4c-0.3,0.3-0.5,0.4-0.8,0.4c-0.3,0-0.6-0.1-0.8-0.3
		c-0.2-0.2-0.3-0.4-0.3-0.6C211.2,53.5,211.2,53.2,211.3,52.7z"/>
	<path id="XMLID_25_" d="M223,59.5c-0.5,0.5-1.1,0.8-1.7,1.1c-0.6,0.2-1.2,0.3-1.8,0.3s-1.2-0.2-1.7-0.4c-0.6-0.3-1.1-0.7-1.6-1.2
		c-0.5-0.5-0.8-1.1-1-1.7c-0.2-0.6-0.3-1.2-0.3-1.8c0-0.6,0.2-1.2,0.5-1.7c0.3-0.6,0.7-1.1,1.2-1.5c0.5-0.5,1.1-0.8,1.7-1.1
		c0.6-0.2,1.2-0.3,1.8-0.3c0.6,0,1.2,0.2,1.7,0.4c0.6,0.3,1.1,0.7,1.5,1.2c0.5,0.5,0.8,1.1,1.1,1.7c0.2,0.6,0.3,1.2,0.3,1.8
		c0,0.6-0.2,1.2-0.5,1.7C223.9,58.5,223.5,59,223,59.5z M221.4,57.8c0.7-0.6,1.1-1.3,1.2-2c0.1-0.7-0.1-1.3-0.6-1.8
		c-0.3-0.3-0.7-0.6-1.1-0.7c-0.4-0.1-0.9-0.1-1.3,0.1c-0.5,0.2-0.9,0.5-1.4,0.9c-0.5,0.4-0.8,0.8-1,1.3c-0.2,0.4-0.3,0.9-0.2,1.3
		c0.1,0.4,0.2,0.8,0.6,1.2c0.5,0.5,1.1,0.8,1.7,0.7C220,58.7,220.7,58.4,221.4,57.8z"/>
	<path id="XMLID_28_" d="M224.8,68l1.5-3.7l-1.7-0.3l-1.5,1.1c-0.4,0.3-0.7,0.4-1.1,0.3c-0.3,0-0.6-0.2-0.8-0.4
		c-0.2-0.3-0.3-0.6-0.2-0.9c0.1-0.3,0.3-0.6,0.7-0.9l8-6.1c0.4-0.3,0.8-0.5,1.1-0.5s0.6,0.1,0.8,0.4c0.2,0.3,0.3,0.6,0.2,0.9
		c-0.1,0.3-0.3,0.6-0.7,0.9l-4.5,3.5l3.8,0.4c0.5,0.1,0.8,0.1,1,0.2c0.2,0.1,0.4,0.2,0.5,0.4c0.2,0.2,0.3,0.5,0.2,0.8
		c0,0.3-0.2,0.5-0.4,0.7c-0.3,0.2-0.8,0.2-1.7,0.1l-1.7-0.3l-1.6,4.2c-0.1,0.3-0.2,0.5-0.3,0.7c-0.1,0.2-0.2,0.3-0.3,0.3
		c-0.3,0.2-0.6,0.3-0.9,0.3c-0.3,0-0.5-0.2-0.7-0.4c-0.2-0.2-0.2-0.5-0.2-0.7C224.5,68.7,224.6,68.4,224.8,68z"/>
	<path id="XMLID_30_" d="M230.6,76.3l0.3-0.2c-0.5,0-0.9-0.1-1.2-0.3c-0.4-0.1-0.7-0.3-1-0.6c-0.3-0.2-0.6-0.6-0.8-1
		c-0.3-0.5-0.5-1-0.5-1.5c0-0.5,0.1-1,0.3-1.4c0.3-0.5,0.8-1,1.6-1.5l4-2.5c0.4-0.2,0.8-0.3,1.1-0.3c0.3,0.1,0.6,0.2,0.7,0.5
		c0.2,0.3,0.2,0.6,0.2,0.9c-0.1,0.3-0.3,0.6-0.7,0.8l-3.2,2c-0.5,0.3-0.8,0.6-1.1,0.8c-0.3,0.3-0.4,0.6-0.5,0.9
		c-0.1,0.3,0,0.6,0.2,1c0.2,0.3,0.5,0.6,0.9,0.8c0.4,0.2,0.8,0.2,1.2,0.2c0.4-0.1,1-0.4,2-1l2.4-1.5c0.4-0.2,0.7-0.3,1.1-0.3
		c0.3,0.1,0.6,0.2,0.8,0.5c0.2,0.3,0.2,0.6,0.2,0.9c-0.1,0.3-0.3,0.6-0.7,0.8l-5.8,3.6c-0.4,0.2-0.7,0.3-1,0.3
		c-0.3-0.1-0.5-0.2-0.7-0.5c-0.2-0.3-0.2-0.6-0.1-0.9C230.1,76.8,230.3,76.5,230.6,76.3z"/>
	<path id="XMLID_32_" d="M250.5,95.4l-8.8,2.8l1.6,4.9c0.1,0.4,0.1,0.7,0,1c-0.1,0.3-0.3,0.5-0.6,0.5c-0.3,0.1-0.6,0.1-0.8-0.1
		c-0.2-0.2-0.4-0.4-0.6-0.8l-1.9-5.9c-0.2-0.5-0.2-1,0-1.3c0.2-0.3,0.5-0.5,1-0.7l9.3-2.9c0.5-0.2,0.9-0.2,1.2,0
		c0.3,0.1,0.5,0.4,0.6,0.8c0.1,0.4,0.1,0.7-0.1,1C251.4,95,251,95.2,250.5,95.4z"/>
	<path id="XMLID_34_" d="M247.3,111.7l-1-4.5c-0.5,0.1-1,0.3-1.3,0.6c-0.4,0.3-0.6,0.6-0.7,1c-0.1,0.4-0.1,0.8-0.1,1.2
		c0.1,0.3,0.1,0.5,0.3,0.7c0.1,0.2,0.3,0.4,0.4,0.6c0.2,0.2,0.4,0.3,0.6,0.5c0.2,0.1,0.5,0.3,0.8,0.6c0.1,0.1,0.2,0.3,0.3,0.5
		c0.1,0.2,0,0.4-0.1,0.6c-0.1,0.2-0.3,0.3-0.5,0.3c-0.2,0-0.5,0-0.8-0.1c-0.3-0.1-0.6-0.3-1-0.6c-0.3-0.3-0.6-0.6-0.9-1.1
		c-0.3-0.5-0.5-1-0.6-1.7c-0.3-1.5-0.1-2.7,0.5-3.7c0.7-1,1.7-1.7,3.2-2c0.7-0.1,1.3-0.2,2-0.1c0.6,0.1,1.2,0.3,1.7,0.6
		c0.5,0.3,0.9,0.7,1.3,1.2c0.3,0.5,0.6,1.1,0.7,1.8c0.2,0.9,0.2,1.7-0.1,2.4c-0.2,0.7-0.6,1.3-1.2,1.8c-0.5,0.5-1.1,0.7-1.7,0.9
		c-0.6,0.1-1,0-1.2-0.3C247.6,112.8,247.4,112.3,247.3,111.7z M247.6,107l0.9,4.2c0.8-0.2,1.3-0.6,1.6-1c0.3-0.5,0.4-1,0.3-1.6
		c-0.1-0.6-0.4-1-0.9-1.3C249,107,248.4,106.9,247.6,107z"/>
	<path id="XMLID_37_" d="M253.1,115.1l0,0.3l1.4-0.2c0.4-0.1,0.7-0.1,0.9-0.1c0.2,0,0.4,0,0.6,0.1c0.2,0.1,0.3,0.2,0.4,0.3
		c0.1,0.2,0.2,0.3,0.2,0.6c0,0.3,0,0.6-0.2,0.8c-0.1,0.2-0.3,0.3-0.5,0.4c-0.2,0.1-0.5,0.1-0.9,0.2l-1.6,0.2l0.1,0.9
		c0,0.3,0,0.6-0.1,0.8c-0.1,0.2-0.3,0.3-0.6,0.3c-0.3,0-0.5,0-0.7-0.3c-0.2-0.2-0.3-0.6-0.3-1l-0.1-0.4l-4.3,0.6
		c-0.4,0.1-0.6,0.1-0.8,0.2s-0.3,0.1-0.4,0.3c-0.1,0.1-0.1,0.3-0.1,0.6c0,0.1,0.1,0.3,0.1,0.5c0.1,0.2,0.1,0.4,0.1,0.5
		c0,0.2,0,0.4-0.2,0.5c-0.1,0.2-0.3,0.3-0.5,0.3c-0.4,0.1-0.7-0.1-0.9-0.5c-0.3-0.4-0.4-1-0.5-1.7c-0.1-0.7-0.1-1.3,0.1-1.7
		c0.2-0.4,0.5-0.7,0.9-0.9c0.4-0.2,1-0.3,1.7-0.4l4.5-0.6l0-0.3c0-0.3,0-0.6,0.1-0.8c0.1-0.2,0.3-0.3,0.6-0.3c0.2,0,0.5,0,0.6,0.2
		S253,114.7,253.1,115.1z"/>
	<path id="XMLID_39_" d="M244.7,128.7l0.5,0.2l7.2-3.1c0.4-0.2,0.7-0.3,0.9-0.3c0.2,0,0.4,0,0.6,0.1c0.2,0.1,0.3,0.2,0.4,0.4
		c0.1,0.2,0.2,0.4,0.2,0.6c0,0.3-0.1,0.6-0.3,0.8c-0.2,0.2-0.5,0.3-0.9,0.5l-5.7,2.2l5.4,1.7c0.4,0.1,0.8,0.3,1,0.4
		c0.3,0.1,0.4,0.2,0.5,0.4c0.1,0.1,0.1,0.3,0.1,0.6c0,0.2,0,0.4-0.1,0.5c-0.1,0.2-0.2,0.3-0.4,0.4c-0.2,0.1-0.3,0.1-0.5,0.1
		c-0.1,0-0.3-0.1-0.5-0.1c-0.2,0-0.4-0.1-0.6-0.2l-8.1-2.8c-0.7-0.2-1.3-0.5-1.7-0.7c-0.4-0.2-0.7-0.6-1-1c-0.2-0.4-0.4-1-0.4-1.7
		c0-0.7,0-1.2,0.2-1.6c0.1-0.3,0.4-0.5,0.8-0.5c0.3,0,0.5,0.1,0.6,0.2c0.2,0.2,0.2,0.4,0.2,0.7c0,0.1,0,0.3,0,0.4c0,0.2,0,0.3,0,0.4
		c0,0.3,0.1,0.5,0.1,0.6c0.1,0.2,0.2,0.3,0.4,0.4C244.1,128.4,244.4,128.6,244.7,128.7z"/>
	<path id="XMLID_41_" d="M249.5,144.9c-0.7,0-1.3-0.2-1.9-0.4c-0.6-0.3-1.1-0.6-1.5-1c-0.4-0.4-0.7-0.9-0.9-1.5
		c-0.2-0.6-0.3-1.2-0.2-2c0-0.7,0.2-1.3,0.5-1.9c0.3-0.6,0.6-1,1.1-1.4c0.5-0.4,1-0.7,1.6-0.9c0.6-0.2,1.2-0.3,1.9-0.2
		c0.7,0,1.4,0.2,1.9,0.4c0.6,0.3,1.1,0.6,1.5,1c0.4,0.4,0.7,0.9,0.9,1.5c0.2,0.6,0.3,1.2,0.2,1.9c0,0.7-0.2,1.4-0.5,1.9
		c-0.3,0.6-0.6,1-1.1,1.4c-0.4,0.4-1,0.7-1.6,0.9C250.8,144.9,250.2,144.9,249.5,144.9z M249.6,142.5c1,0.1,1.7-0.1,2.3-0.5
		c0.6-0.4,0.9-0.9,0.9-1.7c0-0.5-0.1-0.9-0.3-1.2c-0.2-0.4-0.6-0.7-1-0.9c-0.5-0.2-1-0.3-1.6-0.4c-0.6,0-1.2,0-1.6,0.2
		c-0.5,0.2-0.8,0.4-1.1,0.7c-0.3,0.3-0.4,0.7-0.4,1.2c0,0.7,0.2,1.3,0.7,1.7C247.9,142.2,248.7,142.5,249.6,142.5z"/>
	<path id="XMLID_44_" d="M244.9,152.4l0.3,0c-0.3-0.3-0.6-0.7-0.8-1c-0.2-0.3-0.3-0.7-0.4-1.1c-0.1-0.4-0.1-0.8,0-1.3
		c0.1-0.6,0.3-1.1,0.6-1.5c0.3-0.4,0.7-0.7,1.1-0.9c0.5-0.2,1.3-0.3,2.2-0.1l4.6,0.7c0.5,0.1,0.8,0.2,1,0.5c0.2,0.2,0.3,0.5,0.2,0.9
		c-0.1,0.4-0.2,0.6-0.5,0.8c-0.3,0.2-0.6,0.2-1.1,0.2l-3.7-0.6c-0.5-0.1-1-0.1-1.4-0.1c-0.4,0-0.7,0.2-0.9,0.4
		c-0.2,0.2-0.4,0.5-0.5,0.9c-0.1,0.4,0,0.8,0.2,1.2c0.2,0.4,0.4,0.7,0.8,0.9c0.3,0.2,1,0.4,2.1,0.5l2.8,0.4c0.5,0.1,0.8,0.2,1,0.5
		c0.2,0.3,0.3,0.6,0.2,0.9c-0.1,0.3-0.2,0.6-0.5,0.8c-0.3,0.2-0.6,0.2-1.1,0.2l-6.7-1c-0.4-0.1-0.8-0.2-1-0.5
		c-0.2-0.2-0.3-0.5-0.2-0.8c0-0.3,0.2-0.6,0.5-0.7S244.5,152.4,244.9,152.4z"/>
	<path id="XMLID_46_" d="M245.6,159.5l-1.9-0.5c-0.5-0.1-0.8-0.3-1-0.6c-0.2-0.3-0.2-0.6-0.2-0.9c0.1-0.3,0.3-0.6,0.5-0.7
		c0.3-0.2,0.7-0.2,1.1-0.1l6.4,1.5c1,0.2,1.5,0.7,1.3,1.5c-0.1,0.4-0.3,0.6-0.6,0.7c-0.3,0.1-0.7,0.1-1.1,0c0.4,0.4,0.7,0.7,0.9,1.1
		c0.2,0.3,0.2,0.8,0.1,1.2c-0.1,0.5-0.3,0.9-0.7,1.3c-0.3,0.4-0.7,0.5-1.1,0.5c-0.3-0.1-0.5-0.2-0.6-0.5c-0.1-0.2-0.2-0.5-0.1-0.7
		c0-0.1,0.1-0.3,0.3-0.6c0.2-0.3,0.3-0.6,0.4-0.8c0.1-0.3,0.1-0.6-0.1-0.9c-0.1-0.3-0.3-0.5-0.7-0.7c-0.3-0.2-0.7-0.4-1.2-0.5
		C246.8,159.8,246.3,159.7,245.6,159.5z"/>
	<path id="XMLID_48_" d="M246.8,172.7l-0.3-0.1c0.4,0.6,0.6,1.2,0.6,1.7c0.1,0.5,0,1.1-0.2,1.7c-0.3,0.7-0.7,1.2-1.2,1.7
		s-1.2,0.7-2,0.8c-0.8,0.1-1.7,0-2.6-0.4c-0.7-0.3-1.3-0.6-1.8-1c-0.5-0.4-0.9-0.8-1.1-1.3c-0.3-0.5-0.4-1-0.5-1.5
		c0-0.5,0-1.1,0.2-1.6c0.2-0.6,0.6-1.1,1-1.4c0.4-0.3,0.9-0.6,1.6-0.8l-3.3-1.2c-1-0.4-1.3-0.9-1.1-1.6c0.2-0.4,0.4-0.6,0.7-0.7
		c0.3,0,0.7,0,1.2,0.2l9.5,3.5c0.4,0.2,0.7,0.4,0.8,0.6c0.1,0.3,0.2,0.5,0,0.9c-0.1,0.3-0.3,0.5-0.6,0.6
		C247.5,172.9,247.2,172.8,246.8,172.7z M242,175.8c0.6,0.2,1.1,0.3,1.6,0.3c0.5,0,0.9-0.2,1.2-0.4c0.3-0.2,0.6-0.5,0.7-0.9
		c0.2-0.6,0.2-1.2-0.1-1.8c-0.3-0.6-1-1.1-1.9-1.4c-0.9-0.3-1.6-0.4-2.3-0.1c-0.6,0.2-1.1,0.7-1.3,1.3c-0.1,0.4-0.2,0.7-0.1,1.1
		c0.1,0.4,0.3,0.8,0.7,1.1C240.9,175.3,241.4,175.6,242,175.8z"/>
	<path id="XMLID_51_" d="M236.9,185.6l2-4.1c-0.5-0.2-1-0.3-1.4-0.3c-0.5,0-0.9,0.1-1.2,0.4s-0.6,0.5-0.8,0.9
		c-0.1,0.3-0.2,0.5-0.2,0.7c0,0.2,0,0.5,0,0.7c0,0.3,0.1,0.5,0.1,0.7c0.1,0.2,0.2,0.5,0.3,0.9c0,0.2,0,0.3-0.1,0.5
		c-0.1,0.2-0.2,0.4-0.4,0.4c-0.2,0.1-0.4,0.1-0.6,0c-0.2-0.1-0.4-0.3-0.6-0.5c-0.2-0.3-0.3-0.6-0.4-1s-0.1-0.9,0-1.4
		c0.1-0.5,0.2-1.1,0.5-1.7c0.7-1.4,1.6-2.2,2.7-2.6c1.1-0.4,2.4-0.2,3.7,0.4c0.6,0.3,1.2,0.7,1.6,1.1c0.4,0.4,0.8,0.9,1,1.5
		c0.2,0.5,0.3,1.1,0.2,1.7c0,0.6-0.2,1.2-0.5,1.9c-0.4,0.8-0.9,1.5-1.6,1.9c-0.6,0.4-1.3,0.6-2,0.7c-0.7,0-1.3-0.1-1.9-0.4
		c-0.5-0.3-0.8-0.6-0.8-1C236.5,186.6,236.6,186.1,236.9,185.6z M240.1,182l-1.9,3.8c0.7,0.3,1.4,0.4,1.9,0.2s0.9-0.5,1.2-1.1
		c0.3-0.5,0.3-1.1,0.1-1.6C241.2,182.9,240.8,182.4,240.1,182z"/>
	<path id="XMLID_54_" d="M233.1,190.7l-1.7-1c-0.4-0.2-0.7-0.5-0.8-0.8c-0.1-0.3-0.1-0.6,0.1-0.9c0.2-0.3,0.4-0.5,0.7-0.5
		s0.7,0,1.1,0.3l5.7,3.3c0.9,0.5,1.2,1.1,0.8,1.8c-0.2,0.3-0.4,0.5-0.7,0.5c-0.3,0-0.7-0.1-1.1-0.3c0.3,0.5,0.4,0.9,0.5,1.3
		c0.1,0.4,0,0.8-0.3,1.2c-0.3,0.4-0.6,0.8-1,1.1c-0.4,0.3-0.8,0.3-1.2,0.1c-0.2-0.1-0.4-0.4-0.5-0.6c-0.1-0.3,0-0.5,0.1-0.7
		c0-0.1,0.2-0.2,0.5-0.5c0.3-0.2,0.5-0.5,0.6-0.7c0.2-0.3,0.2-0.6,0.2-0.9c0-0.3-0.2-0.6-0.4-0.8c-0.2-0.3-0.6-0.6-1-0.9
		C234.3,191.4,233.7,191.1,233.1,190.7z"/>
	<path id="XMLID_56_" d="M225.8,201.4c-0.5-0.4-0.9-0.8-1.1-1.3c-0.2-0.5-0.2-1.1-0.1-1.7c0.2-0.6,0.5-1.3,1-2.1
		c0.5-0.7,1-1.2,1.6-1.6c0.6-0.3,1.1-0.5,1.6-0.5c0.5,0,0.9,0.1,1.2,0.3c0.2,0.1,0.3,0.3,0.4,0.6c0,0.3,0,0.5-0.2,0.7
		c-0.1,0.2-0.3,0.3-0.5,0.4c-0.2,0-0.4,0-0.6,0c-0.5,0-0.9,0-1.3,0.2c-0.4,0.2-0.7,0.5-1,1c-0.3,0.4-0.4,0.8-0.4,1.1
		c0,0.4,0.1,0.6,0.3,0.8c0.3,0.2,0.7,0.3,1,0.1c0.3-0.1,0.8-0.5,1.3-1c0.6-0.6,1.2-1,1.6-1.3c0.5-0.3,0.9-0.5,1.4-0.5
		c0.5,0,0.9,0.1,1.4,0.4c0.4,0.3,0.7,0.6,0.9,1.1c0.2,0.5,0.2,1,0.1,1.6c-0.1,0.6-0.4,1.2-0.8,1.8c-0.3,0.5-0.7,0.9-1.1,1.2
		c-0.4,0.3-0.8,0.6-1.1,0.7c-0.4,0.1-0.7,0.2-1,0.2c-0.3,0-0.6-0.1-0.8-0.2c-0.2-0.2-0.4-0.4-0.4-0.6c0-0.2,0-0.5,0.2-0.8
		c0.1-0.2,0.3-0.3,0.5-0.4c0.2-0.1,0.5-0.1,0.8-0.1c0.3,0,0.6-0.1,0.8-0.2c0.3-0.1,0.5-0.3,0.7-0.7c0.2-0.3,0.4-0.7,0.4-1
		c0-0.3-0.1-0.6-0.3-0.7c-0.2-0.1-0.4-0.2-0.7-0.1c-0.2,0.1-0.5,0.2-0.8,0.5c-0.3,0.2-0.7,0.6-1.1,1c-0.6,0.5-1.1,0.9-1.5,1.1
		c-0.5,0.2-0.9,0.4-1.3,0.4C226.5,201.7,226.1,201.6,225.8,201.4z"/>
	<path id="XMLID_58_" d="M220.2,210.8c-0.5-0.4-1-0.9-1.3-1.5c-0.3-0.5-0.5-1.1-0.6-1.7c-0.1-0.6,0-1.2,0.2-1.8
		c0.2-0.6,0.5-1.2,1-1.7c0.5-0.5,1-1,1.5-1.3c0.5-0.3,1.1-0.5,1.7-0.5c0.6,0,1.2,0,1.8,0.2c0.6,0.2,1.2,0.5,1.7,1
		c0.5,0.5,1,1,1.3,1.5c0.3,0.5,0.5,1.1,0.6,1.7c0.1,0.6,0,1.2-0.2,1.8c-0.2,0.6-0.5,1.2-1,1.7c-0.5,0.5-1,1-1.5,1.3
		c-0.5,0.3-1.1,0.5-1.7,0.5c-0.6,0-1.2,0-1.8-0.2C221.3,211.6,220.8,211.3,220.2,210.8z M221.7,209c0.7,0.6,1.4,0.9,2.1,1
		c0.7,0,1.2-0.2,1.7-0.8c0.3-0.4,0.5-0.7,0.5-1.2c0-0.4-0.1-0.9-0.3-1.3c-0.2-0.4-0.6-0.9-1.1-1.3c-0.5-0.4-0.9-0.7-1.4-0.8
		c-0.5-0.2-0.9-0.2-1.3-0.1c-0.4,0.1-0.8,0.3-1.1,0.7c-0.5,0.5-0.6,1.2-0.5,1.8C220.6,207.8,221,208.4,221.7,209z"/>
	<path id="XMLID_61_" d="M219.8,216.3l-0.2-0.2c0.1,0.7,0.1,1.3-0.1,1.8c-0.2,0.5-0.5,1-0.9,1.5c-0.4,0.4-0.9,0.7-1.5,0.9
		c-0.5,0.2-1.1,0.1-1.6,0c-0.3-0.1-0.6-0.2-0.9-0.4c-0.3-0.2-0.6-0.5-0.9-0.9l-3.1-3.1c-0.3-0.3-0.5-0.7-0.5-1
		c0-0.3,0.1-0.6,0.3-0.8c0.2-0.2,0.5-0.4,0.9-0.3s0.7,0.2,1,0.5l2.8,2.8c0.5,0.6,1,0.9,1.5,1c0.4,0.1,0.9,0,1.3-0.5
		c0.3-0.3,0.5-0.7,0.5-1.1c0.1-0.4,0-0.8-0.2-1.3c-0.2-0.3-0.6-0.8-1.3-1.5l-2.1-2.1c-0.3-0.3-0.5-0.7-0.5-1c0-0.3,0.1-0.6,0.4-0.9
		c0.2-0.2,0.5-0.3,0.9-0.3c0.3,0,0.7,0.2,1,0.5l4.8,4.8c0.3,0.3,0.5,0.6,0.5,0.9c0,0.3-0.1,0.6-0.3,0.8c-0.1,0.1-0.3,0.2-0.5,0.3
		c-0.2,0-0.4,0-0.6,0C220.2,216.6,220,216.5,219.8,216.3z"/>
	<path id="XMLID_63_" d="M204.3,220.9c0.2-0.7,0.4-1.3,0.6-1.8c0.3-0.5,0.7-1,1.2-1.4c0.5-0.4,1-0.6,1.5-0.7s1-0.1,1.4,0.1
		c0.4,0.2,0.8,0.4,1.1,0.8c0.4,0.5,0.6,1.1,0.6,1.7c0,0.6-0.3,1.2-0.7,1.8c-0.1,0.1-0.3,0.4-0.7,0.9c-0.4,0.5-0.7,0.9-1,1.2
		c-0.3,0.3-0.5,0.7-0.8,1.2c0.4,0.5,0.8,0.7,1.2,0.8c0.4,0.1,0.8-0.1,1.3-0.5c0.5-0.4,0.8-0.7,0.9-1c0.1-0.3,0.2-0.7,0.1-1.1
		c0-0.4-0.1-0.7-0.1-0.8c0-0.1,0.1-0.3,0.3-0.5c0.2-0.2,0.4-0.2,0.7-0.2c0.3,0,0.5,0.1,0.6,0.3c0.3,0.3,0.4,0.7,0.4,1.2
		c0,0.5-0.1,1-0.4,1.6c-0.3,0.6-0.8,1.2-1.6,1.8c-0.8,0.7-1.5,1.1-2.1,1.3c-0.6,0.2-1.2,0.2-1.7-0.1s-1.1-0.7-1.6-1.4
		c-0.4-0.4-0.6-0.8-0.9-1.1c-0.2-0.3-0.5-0.6-0.8-1c-0.3-0.3-0.6-0.7-1-0.9s-0.7-0.5-0.8-0.6c-0.2-0.2-0.2-0.4-0.2-0.7
		c0-0.3,0.2-0.5,0.4-0.7c0.2-0.2,0.4-0.2,0.8-0.2C203.4,220.7,203.8,220.8,204.3,220.9z M206.6,223.5c0.2-0.3,0.5-0.7,0.9-1.3
		c0.4-0.5,0.7-0.9,0.9-1.1c0.2-0.2,0.3-0.5,0.3-0.8c0.1-0.3,0-0.6-0.2-0.8c-0.2-0.3-0.5-0.4-0.9-0.4c-0.4,0-0.7,0.1-1.1,0.4
		c-0.4,0.3-0.6,0.6-0.8,1.1c-0.2,0.4-0.2,0.8-0.2,1.2c0.1,0.4,0.4,0.9,0.9,1.6L206.6,223.5z"/>
	<path id="XMLID_66_" d="M200.8,223.7l5.9,8.3c0.3,0.4,0.4,0.7,0.4,1.1c0,0.3-0.2,0.6-0.5,0.8c-0.3,0.2-0.6,0.3-0.9,0.2
		c-0.3-0.1-0.6-0.3-0.9-0.7l-5.9-8.3c-0.3-0.4-0.4-0.7-0.4-1.1c0-0.3,0.2-0.6,0.5-0.8c0.3-0.2,0.6-0.3,0.9-0.2
		C200.3,223.1,200.6,223.3,200.8,223.7z"/>
	<path id="XMLID_68_" d="M198.7,233.4l-3.7-5.7c-0.3-0.4-0.4-0.8-0.3-1.1c0.1-0.3,0.2-0.6,0.5-0.8c0.3-0.2,0.6-0.2,0.9-0.1
		c0.3,0.1,0.6,0.3,0.9,0.7l3.7,5.6c0.3,0.4,0.4,0.7,0.3,1.1c-0.1,0.3-0.2,0.6-0.5,0.8c-0.3,0.2-0.6,0.2-0.9,0.2
		C199.2,233.9,199,233.7,198.7,233.4z M201,234.8c0.3-0.2,0.6-0.2,0.9-0.2c0.3,0,0.6,0.2,0.8,0.5c0.2,0.3,0.2,0.6,0.2,0.9
		c-0.1,0.3-0.3,0.6-0.5,0.7c-0.3,0.2-0.5,0.2-0.8,0.2c-0.3,0-0.6-0.2-0.8-0.5c-0.2-0.3-0.3-0.6-0.2-0.9
		C200.6,235.2,200.8,234.9,201,234.8z"/>
	<path id="XMLID_71_" d="M196.9,235.9l-0.2,0.1l0.7,1.2c0.2,0.3,0.3,0.6,0.4,0.8c0.1,0.2,0.1,0.4,0.1,0.6c0,0.2,0,0.4-0.1,0.5
		c-0.1,0.2-0.2,0.3-0.4,0.4c-0.3,0.2-0.5,0.2-0.9,0.1c-0.2,0-0.4-0.2-0.5-0.3c-0.1-0.2-0.3-0.4-0.5-0.8l-0.8-1.4l-0.7,0.4
		c-0.3,0.2-0.5,0.2-0.8,0.2c-0.2,0-0.4-0.2-0.5-0.4c-0.2-0.3-0.2-0.5,0-0.8c0.2-0.2,0.4-0.5,0.8-0.7l0.4-0.2l-2.2-3.7
		c-0.2-0.3-0.3-0.6-0.5-0.7c-0.1-0.2-0.3-0.3-0.4-0.3c-0.2-0.1-0.3,0-0.6,0.1c-0.1,0.1-0.3,0.2-0.4,0.3c-0.2,0.2-0.3,0.3-0.4,0.3
		c-0.2,0.1-0.3,0.1-0.6,0.1c-0.2-0.1-0.4-0.2-0.5-0.4c-0.2-0.3-0.2-0.7,0.1-1.1c0.3-0.4,0.7-0.8,1.4-1.2c0.6-0.4,1.2-0.5,1.6-0.5
		c0.5,0,0.8,0.2,1.2,0.5c0.3,0.3,0.7,0.8,1,1.4l2.3,3.9l0.3-0.2c0.3-0.2,0.6-0.2,0.8-0.2c0.2,0,0.4,0.2,0.5,0.4
		c0.1,0.2,0.1,0.4,0.1,0.7C197.4,235.5,197.2,235.7,196.9,235.9z"/>
	<path id="XMLID_73_" d="M185,231.4l0,0.6l5.8,5.2c0.3,0.3,0.6,0.5,0.6,0.7c0.1,0.2,0.1,0.4,0.1,0.6c0,0.2-0.1,0.4-0.2,0.6
		c-0.1,0.2-0.3,0.3-0.4,0.4c-0.3,0.1-0.6,0.2-0.8,0.1c-0.2-0.1-0.5-0.3-0.8-0.6l-4.4-4.3l0.7,5.7c0.1,0.5,0.1,0.8,0.1,1.1
		c0,0.3,0,0.5-0.1,0.6c-0.1,0.1-0.2,0.3-0.5,0.4c-0.2,0.1-0.3,0.1-0.5,0.1c-0.2,0-0.4-0.1-0.5-0.2c-0.2-0.1-0.3-0.2-0.3-0.4
		c0-0.1-0.1-0.3-0.1-0.5c0-0.2-0.1-0.4-0.1-0.6l-0.8-8.6c-0.1-0.7-0.1-1.4,0-1.8c0-0.5,0.2-0.9,0.5-1.3c0.3-0.4,0.7-0.7,1.4-1
		c0.6-0.3,1.1-0.5,1.5-0.5c0.4,0,0.7,0.1,0.8,0.5c0.1,0.2,0.1,0.5,0.1,0.7c-0.1,0.2-0.3,0.4-0.6,0.5c-0.1,0.1-0.2,0.1-0.4,0.1
		c-0.1,0-0.3,0.1-0.4,0.1c-0.2,0.1-0.4,0.2-0.5,0.4c-0.1,0.1-0.2,0.3-0.2,0.6C185,230.7,185,231,185,231.4z"/>
	<path id="XMLID_75_" d="M168.6,241.8c-0.2-0.6-0.2-1.2-0.1-1.7c0.1-0.5,0.5-1,1-1.5c0.5-0.4,1.2-0.8,2-1.1c0.8-0.3,1.5-0.4,2.2-0.4
		c0.7,0,1.2,0.2,1.6,0.5c0.4,0.3,0.7,0.6,0.8,1c0.1,0.2,0.1,0.5,0,0.7c-0.1,0.2-0.3,0.4-0.6,0.5c-0.2,0.1-0.4,0.1-0.6,0
		c-0.2-0.1-0.3-0.2-0.5-0.4c-0.4-0.3-0.7-0.5-1.1-0.6c-0.4-0.1-0.9,0-1.4,0.2c-0.4,0.2-0.8,0.4-1,0.7c-0.2,0.3-0.3,0.6-0.2,0.8
		c0.1,0.4,0.4,0.6,0.7,0.7c0.4,0.1,0.9,0.1,1.6,0c0.8-0.1,1.5-0.1,2.1-0.1c0.6,0,1,0.2,1.4,0.4s0.7,0.6,0.9,1.1
		c0.2,0.4,0.2,0.9,0,1.4c-0.1,0.5-0.4,0.9-0.8,1.4s-1,0.8-1.8,1c-0.6,0.2-1.1,0.3-1.6,0.4c-0.5,0-0.9,0-1.3-0.1
		c-0.4-0.1-0.7-0.2-0.9-0.4c-0.2-0.2-0.4-0.4-0.5-0.6c-0.1-0.3-0.1-0.5,0-0.7c0.1-0.2,0.3-0.4,0.6-0.5c0.2-0.1,0.4-0.1,0.7,0
		c0.2,0.1,0.5,0.2,0.8,0.4c0.2,0.2,0.5,0.3,0.8,0.3c0.3,0.1,0.6,0,1-0.1c0.4-0.1,0.7-0.3,0.9-0.6c0.2-0.3,0.3-0.5,0.2-0.8
		c-0.1-0.2-0.2-0.4-0.5-0.5c-0.2-0.1-0.6-0.1-0.9-0.1c-0.4,0-0.9,0.1-1.5,0.1c-0.7,0.1-1.4,0.1-1.9,0c-0.5-0.1-0.9-0.2-1.3-0.5
		C169,242.5,168.8,242.2,168.6,241.8z"/>
	<path id="XMLID_77_" d="M166.6,251.2l-0.9-3.4c-0.2,0.4-0.4,0.7-0.6,1c-0.2,0.3-0.5,0.5-0.8,0.7c-0.3,0.2-0.7,0.3-1,0.4
		c-0.6,0.1-1.1,0.2-1.6,0c-0.5-0.1-1-0.4-1.3-0.8c-0.2-0.2-0.4-0.5-0.6-0.8c-0.1-0.3-0.3-0.7-0.4-1.1l-1.1-4.4
		c-0.1-0.5-0.1-0.8,0.1-1.1c0.1-0.3,0.4-0.5,0.7-0.6c0.8-0.2,1.2,0.2,1.5,1.1l1,3.9c0.2,0.7,0.4,1.3,0.7,1.6
		c0.3,0.3,0.8,0.4,1.4,0.3c0.4-0.1,0.7-0.3,1-0.6c0.3-0.3,0.4-0.7,0.5-1.1c0-0.4-0.1-1-0.3-1.9l-0.8-3c-0.1-0.5-0.1-0.8,0-1.1
		c0.1-0.3,0.4-0.5,0.8-0.6c0.8-0.2,1.2,0.2,1.5,1.1l2.5,9.9c0.1,0.5,0.1,0.8,0,1.1c-0.1,0.3-0.4,0.5-0.7,0.6c-0.4,0.1-0.7,0-0.9-0.1
		C166.9,252,166.7,251.7,166.6,251.2z"/>
	<path id="XMLID_79_" d="M154.9,250.3l-1.2-6.7c-0.1-0.5,0-0.8,0.1-1.1c0.2-0.3,0.4-0.4,0.8-0.5c0.3-0.1,0.6,0,0.9,0.2
		c0.3,0.2,0.4,0.5,0.5,1l1.2,6.6c0.1,0.5,0,0.8-0.1,1.1c-0.2,0.3-0.4,0.4-0.8,0.5c-0.3,0.1-0.6,0-0.9-0.2
		C155.1,251,155,250.7,154.9,250.3z M156.5,252.5c0.3-0.1,0.6,0,0.9,0.1c0.3,0.2,0.4,0.4,0.5,0.8c0.1,0.3,0,0.6-0.2,0.9
		c-0.2,0.3-0.5,0.4-0.8,0.5c-0.3,0.1-0.6,0-0.8-0.1c-0.3-0.2-0.4-0.4-0.5-0.8c-0.1-0.4,0-0.7,0.2-0.9
		C155.9,252.7,156.2,252.5,156.5,252.5z"/>
	<path id="XMLID_82_" d="M150.1,251.1l0-0.3c-0.4,0.6-0.8,1-1.2,1.3c-0.5,0.3-1,0.5-1.6,0.6c-0.6,0.1-1.2,0-1.7-0.2
		c-0.5-0.2-0.9-0.6-1.2-1c-0.2-0.3-0.3-0.6-0.4-0.9c-0.1-0.3-0.2-0.7-0.2-1.3l-0.5-4.4c-0.1-0.5,0-0.8,0.2-1.1
		c0.2-0.3,0.5-0.4,0.8-0.5c0.3,0,0.6,0.1,0.9,0.3s0.4,0.6,0.4,1l0.4,3.9c0.1,0.8,0.3,1.3,0.5,1.7c0.3,0.4,0.7,0.5,1.3,0.5
		c0.4,0,0.8-0.2,1.1-0.5c0.3-0.3,0.5-0.7,0.6-1.1c0.1-0.4,0.1-1,0-2l-0.3-2.9c-0.1-0.5,0-0.8,0.2-1.1c0.2-0.3,0.5-0.4,0.8-0.4
		c0.3,0,0.6,0.1,0.9,0.3c0.2,0.2,0.4,0.6,0.4,1l0.7,6.8c0,0.4,0,0.8-0.2,1c-0.2,0.2-0.4,0.4-0.8,0.4c-0.2,0-0.4,0-0.6-0.1
		s-0.3-0.2-0.4-0.4C150.2,251.6,150.1,251.3,150.1,251.1z"/>
	<path id="XMLID_84_" d="M134.5,248l4.6-0.1c0-0.5-0.1-1-0.3-1.4c-0.2-0.4-0.5-0.7-0.9-0.9c-0.4-0.2-0.7-0.3-1.2-0.3
		c-0.3,0-0.5,0-0.8,0.1c-0.2,0.1-0.5,0.2-0.7,0.3c-0.2,0.1-0.4,0.3-0.6,0.5c-0.2,0.2-0.4,0.4-0.7,0.7c-0.1,0.1-0.3,0.2-0.5,0.2
		c-0.2,0-0.4-0.1-0.6-0.2c-0.2-0.1-0.2-0.3-0.2-0.6c0-0.2,0.1-0.5,0.2-0.7c0.2-0.3,0.4-0.6,0.7-0.8c0.3-0.3,0.8-0.5,1.3-0.7
		c0.5-0.2,1.1-0.3,1.7-0.3c1.5,0,2.7,0.4,3.5,1.2c0.9,0.8,1.3,2,1.3,3.5c0,0.7-0.1,1.3-0.3,1.9c-0.2,0.6-0.5,1.1-0.9,1.5
		c-0.4,0.4-0.9,0.8-1.4,1c-0.6,0.2-1.2,0.4-1.9,0.4c-0.9,0-1.7-0.2-2.4-0.5c-0.7-0.4-1.2-0.9-1.5-1.5c-0.3-0.6-0.5-1.2-0.5-1.9
		c0-0.6,0.2-1,0.5-1.2C133.4,248.1,133.9,248,134.5,248z M139.1,249.2l-4.3,0.1c0.1,0.8,0.3,1.4,0.7,1.8c0.4,0.4,0.9,0.6,1.5,0.6
		c0.6,0,1.1-0.2,1.4-0.6C138.8,250.6,139,250,139.1,249.2z"/>
	<path id="XMLID_87_" d="M129.6,249.3l0.1,4.1c0,0.8,0,1.4,0,1.7c0,0.5-0.2,0.8-0.4,1.1c-0.3,0.3-0.6,0.4-1,0.3
		c-0.5,0-0.8-0.2-1-0.6c-0.1-0.4-0.2-0.8-0.2-1.5c0-0.4,0.1-0.8,0.1-1.2l0.6-4.2c0.1-0.5,0.2-0.9,0.3-1.1c0.1-0.3,0.4-0.4,0.7-0.4
		c0.3,0,0.5,0.2,0.6,0.4C129.5,248.4,129.6,248.8,129.6,249.3z M129,243.6c0.3,0,0.6,0.1,0.9,0.4c0.2,0.2,0.4,0.6,0.3,1
		c0,0.4-0.2,0.7-0.4,0.9c-0.3,0.2-0.6,0.3-0.9,0.3c-0.4,0-0.7-0.2-0.9-0.4c-0.2-0.3-0.4-0.6-0.3-0.9c0-0.4,0.2-0.7,0.4-0.9
		C128.3,243.7,128.6,243.6,129,243.6z"/>
	<path id="XMLID_90_" d="M88.2,245.1l2.6,1l3.3-8.6c0.2-0.5,0.4-0.8,0.7-1s0.6-0.2,1,0c0.4,0.1,0.6,0.4,0.7,0.7
		c0.1,0.3,0.1,0.7-0.1,1.2l-3.3,8.6l2.6,1c0.4,0.2,0.7,0.4,0.8,0.6c0.1,0.3,0.1,0.5,0,0.8c-0.1,0.3-0.3,0.5-0.6,0.6
		c-0.3,0.1-0.6,0.1-1-0.1l-7.6-2.9c-0.4-0.2-0.7-0.4-0.8-0.6c-0.1-0.3-0.1-0.5,0-0.8c0.1-0.3,0.3-0.5,0.6-0.6
		C87.5,245,87.8,245,88.2,245.1z"/>
	<path id="XMLID_92_" d="M85.5,236.2l2.5,1.2c0.4,0.2,0.6,0.4,0.7,0.7c0.1,0.3,0.1,0.5,0,0.8c-0.1,0.3-0.3,0.5-0.6,0.6
		c-0.3,0.1-0.6,0-1-0.1l-2.5-1.2c-0.4-0.2-0.6-0.4-0.7-0.7c-0.1-0.3-0.1-0.5,0-0.8c0.1-0.3,0.3-0.5,0.6-0.5
		C84.7,235.9,85.1,236,85.5,236.2z"/>
	<path id="XMLID_94_" d="M74.3,230.4c0.4-0.7,0.9-1.2,1.5-1.5c0.6-0.3,1.4-0.5,2.2-0.4c0.8,0.1,1.7,0.4,2.6,0.9
		c1.1,0.6,1.9,1.3,2.3,2.1c0.3,0.6,0.5,1.2,0.5,1.9c0,0.7-0.1,1.2-0.3,1.7c-0.2,0.3-0.4,0.4-0.7,0.5c-0.3,0.1-0.6,0-0.9-0.1
		c-0.2-0.1-0.4-0.3-0.5-0.6c-0.1-0.2-0.1-0.5,0-0.9c0.1-0.4,0.1-0.8,0-1.1c0-0.3-0.1-0.7-0.4-1c-0.2-0.3-0.6-0.6-1-0.9
		c-0.7-0.4-1.3-0.5-1.9-0.5c-0.6,0.1-1,0.3-1.3,0.8c-0.2,0.4-0.3,0.7-0.2,1.1c0.1,0.4,0.3,0.7,0.6,1c0.3,0.3,0.7,0.7,1.2,1.2
		c0.7,0.6,1.2,1.2,1.6,1.8c0.4,0.6,0.6,1.1,0.7,1.7c0.1,0.6-0.1,1.2-0.4,1.9c-0.3,0.6-0.8,1-1.4,1.3c-0.6,0.3-1.3,0.4-2,0.3
		c-0.8-0.1-1.6-0.4-2.4-0.9c-0.7-0.4-1.2-0.8-1.6-1.2c-0.4-0.4-0.7-0.9-0.8-1.4c-0.2-0.5-0.2-0.9-0.2-1.3c0-0.4,0.1-0.7,0.3-1
		c0.2-0.3,0.4-0.5,0.7-0.6c0.3-0.1,0.6-0.1,0.9,0.1c0.3,0.1,0.4,0.3,0.5,0.5c0.1,0.2,0.1,0.5,0.1,0.9c0,0.5,0,1,0.2,1.4
		c0.1,0.4,0.5,0.8,1.2,1.1c0.6,0.3,1.1,0.5,1.6,0.4c0.5-0.1,0.8-0.3,1-0.6c0.1-0.2,0.2-0.4,0.1-0.7c0-0.2-0.1-0.5-0.3-0.7
		s-0.3-0.4-0.5-0.6c-0.2-0.2-0.5-0.5-0.9-0.9c-0.5-0.5-1-1-1.4-1.4c-0.4-0.5-0.7-0.9-0.9-1.4c-0.2-0.4-0.3-0.9-0.3-1.4
		C73.8,231.4,74,230.9,74.3,230.4z"/>
	<path id="XMLID_96_" d="M66.2,234.1l2-2.9c-0.4,0.1-0.8,0.2-1.2,0.2s-0.7-0.1-1-0.2c-0.3-0.1-0.7-0.3-1-0.5
		c-0.5-0.3-0.8-0.8-1.1-1.2c-0.2-0.5-0.3-1-0.3-1.5c0-0.3,0.1-0.6,0.3-1c0.2-0.3,0.4-0.7,0.6-1l2.6-3.7c0.3-0.4,0.6-0.6,0.9-0.7
		c0.3-0.1,0.6,0,0.9,0.2c0.6,0.4,0.7,1.1,0.1,1.8l-2.3,3.2c-0.4,0.6-0.7,1.2-0.7,1.6c-0.1,0.5,0.2,0.9,0.7,1.2
		c0.3,0.2,0.7,0.4,1.1,0.4c0.4,0,0.8-0.1,1.2-0.4c0.3-0.2,0.7-0.7,1.2-1.4l1.8-2.5c0.3-0.4,0.6-0.6,0.9-0.7c0.3-0.1,0.6,0,0.9,0.2
		c0.6,0.4,0.7,1.1,0.1,1.8l-5.9,8.3c-0.3,0.4-0.6,0.6-0.9,0.7c-0.3,0.1-0.6,0-0.9-0.2c-0.3-0.2-0.5-0.5-0.5-0.8
		C65.9,234.8,66,234.5,66.2,234.1z"/>
	<path id="XMLID_98_" d="M58.8,227.3c0.3,0.2,0.4,0.5,0.5,0.8c0.1,0.3,0,0.6-0.3,0.9c-0.2,0.3-0.5,0.4-0.8,0.4
		c-0.3,0-0.6-0.1-0.8-0.3c-0.2-0.2-0.4-0.4-0.4-0.7c-0.1-0.3,0-0.6,0.3-0.9c0.2-0.3,0.5-0.4,0.8-0.4C58.3,227,58.5,227.1,58.8,227.3
		z M59.4,224.7l4.3-5.3c0.3-0.4,0.6-0.6,0.9-0.6c0.3,0,0.6,0,0.9,0.3c0.3,0.2,0.4,0.5,0.4,0.8s-0.1,0.7-0.4,1l-4.3,5.2
		c-0.3,0.4-0.6,0.6-0.9,0.6c-0.3,0-0.6,0-0.9-0.3c-0.3-0.2-0.4-0.5-0.4-0.8C59,225.3,59.1,225,59.4,224.7z"/>
	<path id="XMLID_101_" d="M58.9,217.8l1.3-1.5c0.3-0.4,0.6-0.5,1-0.6c0.3,0,0.6,0.1,0.9,0.3c0.3,0.2,0.4,0.5,0.4,0.8
		c0,0.3-0.2,0.7-0.5,1l-4.4,4.8c-0.7,0.8-1.3,0.9-1.9,0.4c-0.3-0.3-0.4-0.5-0.4-0.8s0.2-0.6,0.5-1c-0.5,0.2-1,0.2-1.4,0.2
		c-0.4,0-0.8-0.2-1.1-0.5c-0.4-0.3-0.6-0.7-0.8-1.2c-0.2-0.5-0.1-0.9,0.1-1.2c0.2-0.2,0.4-0.3,0.7-0.3c0.3,0,0.5,0.1,0.7,0.2
		c0.1,0.1,0.2,0.2,0.4,0.5c0.2,0.3,0.4,0.5,0.5,0.7c0.3,0.2,0.5,0.4,0.8,0.4c0.3,0,0.6-0.1,0.9-0.3s0.7-0.4,1-0.8
		S58.4,218.3,58.9,217.8z"/>
	<path id="XMLID_103_" d="M50.6,218.1l-0.2-0.2l-1,1c-0.3,0.3-0.5,0.5-0.7,0.6c-0.2,0.1-0.3,0.2-0.5,0.3c-0.2,0-0.4,0-0.6,0
		c-0.2-0.1-0.4-0.2-0.5-0.3c-0.2-0.2-0.3-0.5-0.3-0.8c0-0.2,0.1-0.4,0.2-0.6c0.1-0.2,0.3-0.4,0.6-0.7l1.1-1.1l-0.6-0.6
		c-0.2-0.2-0.4-0.5-0.4-0.7c0-0.2,0.1-0.4,0.3-0.6c0.2-0.2,0.5-0.3,0.7-0.2c0.3,0.1,0.6,0.3,0.9,0.6l0.3,0.3l3.1-3
		c0.3-0.3,0.5-0.5,0.6-0.6c0.1-0.2,0.2-0.3,0.2-0.5c0-0.2-0.1-0.3-0.2-0.5c-0.1-0.1-0.2-0.2-0.4-0.4c-0.2-0.1-0.3-0.2-0.4-0.3
		c-0.1-0.1-0.2-0.3-0.2-0.5c0-0.2,0.1-0.4,0.2-0.6c0.3-0.3,0.6-0.3,1.1-0.2c0.4,0.2,0.9,0.5,1.5,1.1c0.5,0.5,0.8,1,0.9,1.5
		s0,0.9-0.2,1.2c-0.2,0.4-0.6,0.8-1.1,1.3l-3.2,3.1l0.2,0.2c0.2,0.2,0.4,0.5,0.4,0.7c0,0.2-0.1,0.4-0.3,0.6
		c-0.2,0.2-0.4,0.2-0.6,0.2C51.1,218.5,50.8,218.4,50.6,218.1z"/>
	<path id="XMLID_105_" d="M36.4,207.5c-0.8-1-1.2-2.1-1.4-3.2c-0.1-1.1,0-2.1,0.5-3.1c0.5-1,1.3-1.9,2.3-2.7c0.8-0.6,1.6-1,2.4-1.3
		c0.8-0.3,1.6-0.4,2.4-0.3c0.8,0.1,1.5,0.3,2.2,0.8c0.7,0.4,1.4,1,2,1.8c0.6,0.8,1,1.6,1.2,2.4c0.2,0.8,0.2,1.6,0.1,2.4
		c-0.2,0.8-0.5,1.5-1,2.2c-0.5,0.7-1.1,1.3-1.9,1.9c-0.8,0.6-1.6,1-2.4,1.3c-0.8,0.3-1.6,0.4-2.4,0.3c-0.8-0.1-1.5-0.3-2.2-0.8
		C37.7,208.8,37,208.2,36.4,207.5z M39.5,200.7c-0.7,0.6-1.3,1.2-1.7,1.8c-0.4,0.6-0.5,1.3-0.5,1.9c0.1,0.7,0.3,1.3,0.7,1.8
		c0.3,0.4,0.7,0.7,1.1,1c0.4,0.2,0.9,0.4,1.3,0.4s1-0.1,1.6-0.3c0.6-0.2,1.1-0.5,1.7-0.9c0.6-0.4,1-0.9,1.4-1.4
		c0.4-0.5,0.6-1,0.7-1.5c0.1-0.5,0.1-1,0-1.4c-0.1-0.5-0.3-0.9-0.6-1.3c-0.4-0.5-0.9-0.9-1.5-1.1c-0.6-0.2-1.3-0.3-2-0.1
		C41,199.7,40.3,200.1,39.5,200.7z"/>
	<path id="XMLID_108_" d="M38.4,188.7l-1.9,3.5l1.7,0.5l1.6-1c0.4-0.2,0.8-0.3,1.1-0.2c0.3,0.1,0.6,0.3,0.7,0.5
		c0.2,0.3,0.2,0.6,0.1,0.9c-0.1,0.3-0.4,0.6-0.8,0.8l-8.6,5.1c-0.4,0.3-0.8,0.4-1.2,0.4c-0.3,0-0.6-0.2-0.8-0.5
		c-0.2-0.3-0.2-0.6-0.1-0.9c0.1-0.3,0.4-0.6,0.8-0.8L36,194l-3.7-0.9c-0.5-0.1-0.8-0.2-1-0.3c-0.2-0.1-0.4-0.2-0.5-0.4
		c-0.2-0.3-0.2-0.5-0.1-0.8c0.1-0.3,0.2-0.5,0.5-0.6c0.3-0.2,0.9-0.1,1.7,0.1l1.6,0.5l2-4c0.2-0.3,0.3-0.5,0.4-0.7
		c0.1-0.1,0.2-0.2,0.3-0.3c0.3-0.2,0.6-0.3,0.9-0.2c0.3,0.1,0.5,0.2,0.7,0.5c0.1,0.2,0.2,0.5,0.1,0.7
		C38.7,187.9,38.6,188.2,38.4,188.7z"/>
	<path id="XMLID_110_" d="M29.3,178.8c0.6-0.3,1.3-0.5,1.9-0.5c0.6-0.1,1.2,0,1.8,0.2c0.6,0.2,1.1,0.5,1.5,0.9
		c0.5,0.4,0.8,1,1.1,1.6c0.3,0.6,0.5,1.3,0.5,1.9c0,0.6,0,1.2-0.3,1.8c-0.2,0.6-0.5,1.1-1,1.5s-1,0.8-1.6,1.1
		c-0.6,0.3-1.3,0.5-1.9,0.5c-0.6,0.1-1.2,0-1.8-0.2c-0.6-0.2-1.1-0.5-1.5-0.9c-0.5-0.4-0.8-1-1.1-1.6c-0.3-0.6-0.5-1.3-0.5-1.9
		c0-0.6,0-1.2,0.2-1.8c0.2-0.6,0.5-1.1,1-1.5S28.6,179.1,29.3,178.8z M30.3,180.9c-0.9,0.4-1.4,0.9-1.7,1.5c-0.3,0.6-0.3,1.2,0,1.9
		c0.2,0.4,0.5,0.7,0.8,0.9c0.4,0.2,0.8,0.3,1.3,0.3c0.5,0,1-0.2,1.6-0.4c0.6-0.3,1-0.6,1.3-0.9c0.3-0.4,0.5-0.8,0.6-1.2
		c0.1-0.4,0-0.8-0.2-1.3c-0.3-0.6-0.8-1-1.5-1.2C31.9,180.4,31.1,180.5,30.3,180.9z"/>
	<path id="XMLID_113_" d="M30,170.1l-2.5,3.1l1.6,0.8l1.8-0.6c0.4-0.2,0.8-0.2,1.1,0c0.3,0.1,0.5,0.4,0.6,0.6c0.1,0.3,0.1,0.6,0,0.9
		c-0.2,0.3-0.5,0.5-0.9,0.7l-9.4,3.5c-0.5,0.2-0.9,0.2-1.2,0.1c-0.3-0.1-0.6-0.3-0.7-0.7c-0.1-0.3-0.1-0.7,0.1-0.9
		c0.2-0.3,0.5-0.5,0.9-0.7l5.4-2l-3.5-1.5c-0.4-0.2-0.7-0.3-0.9-0.5c-0.2-0.1-0.3-0.3-0.4-0.5c-0.1-0.3-0.1-0.5,0-0.8
		c0.1-0.2,0.3-0.4,0.6-0.5c0.3-0.1,0.9,0,1.6,0.4l1.5,0.8l2.7-3.6c0.2-0.3,0.4-0.5,0.5-0.6c0.1-0.1,0.2-0.2,0.4-0.3
		c0.4-0.1,0.7-0.1,0.9,0c0.3,0.1,0.5,0.3,0.6,0.6c0.1,0.3,0.1,0.5,0,0.7C30.4,169.5,30.2,169.8,30,170.1z"/>
	<path id="XMLID_115_" d="M26.8,160.4l-0.3,0.1c0.4,0.2,0.8,0.4,1.1,0.6c0.3,0.2,0.6,0.5,0.8,0.8c0.2,0.3,0.4,0.7,0.5,1.2
		c0.1,0.6,0.2,1.1,0.1,1.6c-0.1,0.5-0.3,0.9-0.7,1.3c-0.4,0.4-1.1,0.7-2,1l-4.5,1.2c-0.5,0.1-0.8,0.1-1.1,0
		c-0.3-0.1-0.5-0.4-0.6-0.7c-0.1-0.3-0.1-0.7,0.1-0.9c0.2-0.3,0.5-0.5,0.9-0.6l3.6-1c0.5-0.1,1-0.3,1.3-0.5c0.3-0.2,0.6-0.4,0.7-0.7
		c0.1-0.3,0.2-0.6,0.1-1c-0.1-0.4-0.3-0.7-0.6-1c-0.3-0.3-0.7-0.4-1.1-0.5c-0.4,0-1.1,0.1-2.2,0.4l-2.8,0.7c-0.4,0.1-0.8,0.1-1.1,0
		c-0.3-0.1-0.5-0.4-0.6-0.7c-0.1-0.3-0.1-0.6,0.1-0.9c0.2-0.3,0.5-0.5,0.9-0.6l6.6-1.8c0.4-0.1,0.8-0.1,1.1,0
		c0.3,0.1,0.4,0.4,0.5,0.7c0.1,0.3,0,0.6-0.1,0.9C27.5,160.2,27.2,160.3,26.8,160.4z"/>
	<path id="XMLID_117_" d="M13.6,141.1l9.2-0.5l-0.3-5.2c0-0.4,0.1-0.7,0.3-1c0.2-0.2,0.4-0.4,0.7-0.4c0.3,0,0.6,0.1,0.8,0.3
		c0.2,0.2,0.3,0.5,0.3,0.9l0.3,6.2c0,0.6-0.1,1-0.3,1.2c-0.2,0.3-0.6,0.4-1.2,0.4l-9.7,0.5c-0.5,0-0.9-0.1-1.2-0.3
		c-0.3-0.2-0.4-0.5-0.4-0.9c0-0.4,0.1-0.7,0.3-1C12.7,141.3,13.1,141.1,13.6,141.1z"/>
	<path id="XMLID_119_" d="M20.9,126.1l-0.2,4.6c0.5,0,1-0.1,1.4-0.3c0.4-0.2,0.7-0.5,1-0.8c0.2-0.3,0.3-0.7,0.4-1.1
		c0-0.3,0-0.5-0.1-0.8c-0.1-0.2-0.1-0.5-0.3-0.7c-0.1-0.2-0.3-0.4-0.4-0.6c-0.2-0.2-0.4-0.4-0.6-0.7c-0.1-0.1-0.1-0.3-0.1-0.5
		c0-0.2,0.1-0.4,0.2-0.6c0.1-0.1,0.3-0.2,0.6-0.2c0.2,0,0.5,0.1,0.7,0.3s0.5,0.4,0.8,0.8c0.2,0.3,0.4,0.8,0.6,1.3
		c0.2,0.5,0.2,1.1,0.2,1.8c-0.1,1.5-0.5,2.7-1.4,3.5c-0.9,0.8-2.1,1.2-3.6,1.1c-0.7,0-1.3-0.2-1.9-0.4c-0.6-0.2-1.1-0.6-1.5-1
		c-0.4-0.4-0.7-0.9-0.9-1.5c-0.2-0.6-0.3-1.2-0.3-1.9c0-0.9,0.3-1.7,0.7-2.3c0.4-0.6,0.9-1.1,1.6-1.4c0.6-0.3,1.3-0.4,1.9-0.4
		c0.6,0,1,0.2,1.1,0.6C20.9,125,20.9,125.5,20.9,126.1z M19.4,130.6l0.2-4.3c-0.8,0-1.4,0.2-1.8,0.6c-0.4,0.4-0.6,0.8-0.7,1.5
		c0,0.6,0.2,1.1,0.5,1.5C18,130.3,18.6,130.5,19.4,130.6z"/>
	<path id="XMLID_122_" d="M16.2,121.4l0-0.3l-1.4-0.2c-0.4,0-0.7-0.1-0.9-0.1c-0.2,0-0.4-0.1-0.5-0.2c-0.1-0.1-0.3-0.3-0.3-0.4
		c-0.1-0.2-0.1-0.4-0.1-0.6c0-0.3,0.2-0.6,0.4-0.8c0.2-0.1,0.4-0.2,0.6-0.2c0.2,0,0.5,0,0.9,0l1.6,0.2l0.1-0.9
		c0-0.3,0.1-0.6,0.3-0.7c0.2-0.2,0.4-0.2,0.6-0.2c0.3,0,0.5,0.2,0.6,0.4c0.1,0.3,0.1,0.6,0.1,1.1l-0.1,0.4l4.3,0.5
		c0.4,0,0.6,0.1,0.8,0.1s0.4-0.1,0.5-0.1s0.2-0.3,0.2-0.5c0-0.1,0-0.3,0-0.6c0-0.2,0-0.4,0-0.6c0-0.2,0.1-0.3,0.3-0.5
		c0.2-0.1,0.4-0.2,0.6-0.2c0.4,0,0.6,0.3,0.8,0.7c0.2,0.4,0.2,1,0.1,1.8c-0.1,0.7-0.3,1.3-0.6,1.6c-0.3,0.3-0.7,0.6-1.1,0.6
		c-0.4,0.1-1,0.1-1.8,0l-4.5-0.5l0,0.3c0,0.3-0.1,0.6-0.3,0.7c-0.2,0.2-0.4,0.2-0.6,0.2c-0.2,0-0.4-0.1-0.6-0.3
		C16.2,122,16.1,121.7,16.2,121.4z"/>
	<path id="XMLID_124_" d="M27.7,110.3l-0.5-0.3l-7.8,1.2c-0.4,0.1-0.8,0.1-1,0.1c-0.2,0-0.4-0.1-0.5-0.3s-0.2-0.3-0.3-0.5
		c-0.1-0.2-0.1-0.4,0-0.6c0.1-0.3,0.2-0.6,0.5-0.7c0.2-0.1,0.6-0.2,1-0.2l6.1-0.6l-4.8-3c-0.4-0.2-0.7-0.5-0.9-0.6
		c-0.2-0.2-0.3-0.3-0.4-0.5c-0.1-0.2-0.1-0.3,0-0.6c0-0.2,0.1-0.3,0.3-0.5c0.1-0.1,0.3-0.2,0.5-0.3c0.2-0.1,0.4-0.1,0.5,0
		c0.1,0,0.2,0.1,0.4,0.2c0.2,0.1,0.4,0.2,0.6,0.3l7.1,4.8c0.6,0.4,1.1,0.8,1.4,1.1c0.3,0.3,0.6,0.7,0.7,1.2c0.1,0.5,0.1,1-0.1,1.7
		c-0.2,0.7-0.3,1.2-0.6,1.5c-0.2,0.3-0.5,0.4-0.9,0.3c-0.3-0.1-0.4-0.2-0.6-0.4c-0.1-0.2-0.1-0.4-0.1-0.8c0-0.1,0.1-0.2,0.1-0.3
		c0.1-0.1,0.1-0.3,0.1-0.4c0.1-0.3,0.1-0.5,0-0.6c0-0.2-0.1-0.3-0.3-0.5C28.3,110.8,28,110.6,27.7,110.3z"/>
	<path id="XMLID_126_" d="M27.2,93.5c0.7,0.2,1.2,0.5,1.7,0.9c0.5,0.4,0.9,0.8,1.2,1.4c0.3,0.5,0.4,1.1,0.5,1.7
		c0,0.6-0.1,1.3-0.3,1.9c-0.2,0.7-0.5,1.3-0.9,1.7c-0.4,0.5-0.9,0.8-1.4,1.1c-0.5,0.3-1.1,0.4-1.7,0.4c-0.6,0-1.3-0.1-1.9-0.3
		c-0.7-0.2-1.3-0.5-1.8-0.9c-0.5-0.4-0.9-0.8-1.2-1.4c-0.3-0.5-0.4-1.1-0.5-1.7c0-0.6,0.1-1.3,0.3-1.9c0.2-0.7,0.5-1.3,0.9-1.7
		c0.4-0.5,0.9-0.9,1.4-1.1c0.5-0.3,1.1-0.4,1.7-0.4C25.9,93.2,26.5,93.3,27.2,93.5z M26.5,95.8c-0.9-0.3-1.7-0.3-2.3-0.1
		c-0.6,0.2-1.1,0.7-1.3,1.4c-0.1,0.4-0.2,0.9,0,1.3c0.1,0.4,0.4,0.8,0.8,1.1c0.4,0.3,0.9,0.6,1.5,0.8c0.6,0.2,1.1,0.3,1.6,0.2
		c0.5,0,0.9-0.2,1.3-0.4c0.3-0.3,0.6-0.6,0.7-1.1c0.2-0.7,0.1-1.3-0.2-1.9C28,96.5,27.4,96,26.5,95.8z"/>
	<path id="XMLID_129_" d="M33.6,87.4l-0.3-0.1c0.2,0.4,0.4,0.8,0.5,1.2c0.1,0.4,0.1,0.8,0.1,1.1c0,0.4-0.2,0.8-0.3,1.2
		c-0.2,0.5-0.5,0.9-0.9,1.3c-0.4,0.3-0.8,0.5-1.3,0.6c-0.6,0.1-1.3-0.1-2.2-0.5l-4.3-1.9c-0.4-0.2-0.7-0.4-0.8-0.7
		c-0.1-0.3-0.1-0.6,0-0.9c0.1-0.3,0.4-0.5,0.7-0.7c0.3-0.1,0.7-0.1,1.1,0.1l3.5,1.5c0.5,0.2,0.9,0.4,1.3,0.4c0.4,0.1,0.7,0,1-0.1
		c0.3-0.1,0.5-0.4,0.7-0.8c0.2-0.4,0.2-0.8,0.1-1.2c-0.1-0.4-0.3-0.8-0.5-1.1c-0.3-0.3-0.9-0.6-1.9-1.1l-2.6-1.1
		c-0.4-0.2-0.7-0.4-0.8-0.7c-0.1-0.3-0.1-0.6,0-0.9c0.1-0.3,0.4-0.5,0.7-0.6c0.3-0.1,0.7-0.1,1.1,0.1l6.3,2.7
		c0.4,0.2,0.7,0.4,0.8,0.7c0.1,0.3,0.1,0.6,0,0.9s-0.3,0.5-0.6,0.6C34.3,87.6,34,87.6,33.6,87.4z"/>
	<path id="XMLID_131_" d="M34.7,80.4l1.7,0.9c0.4,0.2,0.7,0.5,0.8,0.8c0.1,0.3,0.1,0.6-0.1,0.9c-0.2,0.3-0.4,0.5-0.7,0.6
		c-0.3,0.1-0.7,0-1.1-0.2l-5.8-3.1c-0.9-0.5-1.2-1.1-0.9-1.8c0.2-0.3,0.4-0.5,0.7-0.6c0.3,0,0.7,0.1,1.1,0.3
		c-0.3-0.5-0.5-0.9-0.6-1.3c-0.1-0.4,0-0.8,0.2-1.2c0.2-0.4,0.6-0.8,1-1.1c0.4-0.3,0.8-0.3,1.2-0.2c0.3,0.1,0.4,0.3,0.5,0.6
		c0.1,0.3,0.1,0.5-0.1,0.7c0,0.1-0.2,0.2-0.4,0.5c-0.2,0.2-0.4,0.5-0.6,0.7c-0.2,0.3-0.2,0.6-0.2,0.9c0.1,0.3,0.2,0.6,0.5,0.8
		c0.3,0.3,0.6,0.5,1,0.8C33.6,79.7,34.1,80,34.7,80.4z"/>
	<path id="XMLID_133_" d="M36.9,67.3l0.2,0.2c-0.2-0.7-0.3-1.3-0.2-1.8c0.1-0.5,0.3-1.1,0.6-1.5c0.4-0.6,1-1,1.6-1.3
		c0.7-0.3,1.4-0.4,2.2-0.2c0.8,0.1,1.6,0.5,2.4,1c0.6,0.4,1.1,0.9,1.5,1.4c0.4,0.5,0.6,1,0.8,1.6c0.1,0.5,0.1,1.1,0,1.6
		c-0.1,0.5-0.3,1-0.6,1.5c-0.4,0.6-0.8,0.9-1.3,1.2c-0.5,0.2-1.1,0.3-1.7,0.4l2.9,2c0.8,0.6,1.1,1.2,0.6,1.8
		c-0.3,0.4-0.5,0.5-0.8,0.5c-0.3,0-0.7-0.2-1.1-0.5l-8.3-5.8c-0.4-0.3-0.6-0.5-0.7-0.8c-0.1-0.3,0-0.6,0.2-0.8
		c0.2-0.3,0.4-0.4,0.7-0.5C36.3,66.9,36.6,67.1,36.9,67.3z M42.4,65.5c-0.5-0.4-1-0.6-1.5-0.7c-0.5-0.1-0.9-0.1-1.3,0.1
		c-0.4,0.1-0.7,0.4-0.9,0.7c-0.4,0.5-0.5,1.1-0.3,1.8c0.2,0.7,0.6,1.3,1.5,1.8c0.8,0.5,1.5,0.8,2.2,0.7c0.7-0.1,1.2-0.4,1.6-0.9
		c0.2-0.3,0.3-0.7,0.3-1.1c0-0.4-0.1-0.8-0.4-1.2C43.3,66.3,42.9,65.9,42.4,65.5z"/>
	<path id="XMLID_136_" d="M49.8,57.4l-3,3.5c0.4,0.3,0.8,0.6,1.3,0.7c0.4,0.1,0.9,0.1,1.2,0c0.4-0.1,0.7-0.4,1-0.7
		c0.2-0.2,0.3-0.4,0.4-0.7c0.1-0.2,0.2-0.5,0.2-0.7c0-0.3,0.1-0.5,0-0.8c0-0.2,0-0.6,0-1c0-0.2,0.1-0.3,0.2-0.5
		c0.2-0.2,0.3-0.3,0.5-0.3c0.2,0,0.4,0,0.6,0.2c0.2,0.1,0.3,0.4,0.4,0.7c0.1,0.3,0.2,0.7,0.1,1.1c0,0.4-0.1,0.9-0.3,1.4
		c-0.2,0.5-0.5,1-0.9,1.5c-1,1.1-2.1,1.8-3.3,1.8c-1.2,0.1-2.4-0.4-3.5-1.3c-0.5-0.5-1-0.9-1.3-1.5c-0.3-0.5-0.5-1.1-0.6-1.7
		c-0.1-0.6,0-1.2,0.2-1.7c0.2-0.6,0.5-1.2,1-1.7c0.6-0.7,1.3-1.2,2-1.4c0.7-0.2,1.4-0.3,2.1-0.1c0.7,0.2,1.3,0.4,1.7,0.8
		c0.4,0.4,0.6,0.8,0.5,1.1C50.4,56.5,50.2,56.9,49.8,57.4z M45.8,60l2.8-3.2c-0.6-0.5-1.2-0.7-1.8-0.7c-0.5,0-1,0.3-1.4,0.7
		c-0.4,0.4-0.5,0.9-0.5,1.5C44.9,58.9,45.2,59.4,45.8,60z"/>
	<path id="XMLID_139_" d="M54.7,53.4l1.4,1.4c0.3,0.3,0.5,0.7,0.5,1c0,0.3-0.1,0.6-0.4,0.9C56,56.9,55.7,57,55.4,57
		c-0.3,0-0.7-0.2-1-0.5l-4.6-4.6c-0.7-0.7-0.8-1.4-0.3-1.9c0.3-0.3,0.6-0.4,0.9-0.3c0.3,0.1,0.6,0.2,1,0.6c-0.1-0.5-0.2-1-0.2-1.4
		c0-0.4,0.2-0.8,0.6-1.1c0.4-0.3,0.8-0.6,1.3-0.8c0.5-0.2,0.9-0.1,1.2,0.2c0.2,0.2,0.3,0.4,0.3,0.7c0,0.3-0.1,0.5-0.3,0.7
		c-0.1,0.1-0.2,0.2-0.6,0.3c-0.3,0.2-0.6,0.3-0.7,0.5c-0.2,0.2-0.4,0.5-0.4,0.8c0,0.3,0,0.6,0.2,0.9c0.2,0.3,0.4,0.7,0.7,1.1
		C53.8,52.4,54.2,52.9,54.7,53.4z"/>
	<path id="XMLID_141_" d="M64.6,44.9c0.4,0.5,0.7,1,0.7,1.6c0.1,0.6-0.1,1.1-0.4,1.7c-0.3,0.6-0.8,1.2-1.5,1.7
		c-0.6,0.5-1.3,0.9-1.9,1.1c-0.6,0.2-1.2,0.2-1.6,0.1c-0.5-0.1-0.8-0.3-1.1-0.6c-0.2-0.2-0.2-0.4-0.2-0.7c0-0.3,0.1-0.5,0.4-0.7
		c0.2-0.2,0.4-0.2,0.6-0.2c0.2,0,0.4,0.1,0.6,0.1c0.5,0.2,0.9,0.2,1.3,0.2c0.4-0.1,0.8-0.3,1.2-0.7c0.4-0.3,0.6-0.6,0.7-1
		c0.1-0.4,0.1-0.6-0.1-0.8c-0.3-0.3-0.6-0.4-0.9-0.4c-0.4,0.1-0.9,0.3-1.5,0.6c-0.7,0.4-1.4,0.6-1.9,0.8s-1,0.2-1.5,0.1
		s-0.9-0.3-1.2-0.7c-0.3-0.4-0.5-0.8-0.5-1.3c-0.1-0.5,0-1,0.3-1.6c0.3-0.5,0.7-1.1,1.3-1.6c0.5-0.4,0.9-0.7,1.4-0.9
		c0.5-0.2,0.9-0.4,1.3-0.4c0.4,0,0.7,0,1,0.1c0.3,0.1,0.5,0.2,0.7,0.4c0.2,0.2,0.2,0.4,0.2,0.7c0,0.2-0.2,0.5-0.4,0.7
		c-0.2,0.2-0.4,0.2-0.6,0.2c-0.2,0-0.5,0-0.8-0.1c-0.3-0.1-0.6-0.1-0.8,0c-0.3,0.1-0.6,0.2-0.9,0.5c-0.3,0.3-0.5,0.6-0.6,0.9
		c-0.1,0.3-0.1,0.6,0.1,0.8c0.2,0.2,0.4,0.3,0.6,0.3s0.6-0.1,0.9-0.2c0.3-0.1,0.8-0.4,1.3-0.7c0.7-0.3,1.3-0.6,1.8-0.7
		c0.5-0.1,1-0.1,1.4,0C64,44.4,64.3,44.6,64.6,44.9z"/>
	<path id="XMLID_143_" d="M72.3,37.2c0.4,0.6,0.7,1.2,0.9,1.8c0.2,0.6,0.2,1.2,0.1,1.8c-0.1,0.6-0.3,1.1-0.6,1.7
		c-0.3,0.5-0.8,1-1.4,1.4c-0.6,0.4-1.2,0.7-1.8,0.8c-0.6,0.1-1.2,0.2-1.8,0.1c-0.6-0.1-1.1-0.3-1.7-0.7c-0.5-0.4-1-0.8-1.4-1.4
		c-0.4-0.6-0.7-1.2-0.9-1.8c-0.2-0.6-0.2-1.2-0.1-1.8c0.1-0.6,0.3-1.1,0.6-1.6s0.8-1,1.4-1.4c0.6-0.4,1.2-0.7,1.8-0.8
		c0.6-0.1,1.2-0.2,1.8-0.1c0.6,0.1,1.1,0.3,1.6,0.7C71.5,36.1,71.9,36.6,72.3,37.2z M70.4,38.6c-0.6-0.8-1.2-1.3-1.8-1.5
		c-0.7-0.2-1.3-0.1-1.9,0.3c-0.4,0.3-0.6,0.6-0.8,1c-0.1,0.4-0.2,0.8,0,1.3c0.1,0.5,0.4,1,0.7,1.5c0.4,0.5,0.7,0.9,1.2,1.2
		c0.4,0.3,0.8,0.4,1.3,0.4c0.4,0,0.8-0.1,1.2-0.4c0.6-0.4,0.9-1,0.9-1.6C71.2,40.1,71,39.3,70.4,38.6z"/>
	<path id="XMLID_146_" d="M74.1,32l0.1,0.2c0.1-0.7,0.3-1.3,0.6-1.7c0.3-0.5,0.7-0.9,1.3-1.2c0.5-0.3,1.1-0.5,1.6-0.5
		c0.6,0,1.1,0.1,1.5,0.4c0.3,0.2,0.5,0.4,0.7,0.7c0.2,0.3,0.4,0.6,0.7,1.1l2.2,3.8c0.2,0.4,0.3,0.8,0.3,1.1
		c-0.1,0.3-0.2,0.6-0.5,0.7c-0.3,0.2-0.6,0.2-0.9,0.1c-0.3-0.1-0.6-0.4-0.8-0.8l-2-3.4c-0.4-0.7-0.8-1.1-1.2-1.4
		c-0.4-0.2-0.9-0.2-1.4,0.1c-0.4,0.2-0.6,0.5-0.8,0.9c-0.2,0.4-0.2,0.8-0.1,1.3c0.1,0.4,0.4,1,0.8,1.8l1.5,2.6
		c0.2,0.4,0.3,0.8,0.2,1.1c-0.1,0.3-0.3,0.6-0.6,0.7c-0.3,0.2-0.6,0.2-0.9,0.1c-0.3-0.1-0.6-0.4-0.8-0.8l-3.4-5.9
		c-0.2-0.4-0.3-0.7-0.2-1c0.1-0.3,0.2-0.5,0.5-0.7c0.2-0.1,0.4-0.2,0.6-0.2c0.2,0,0.4,0.1,0.6,0.2C73.8,31.6,74,31.8,74.1,32z"/>
	<path id="XMLID_148_" d="M90.3,31.5c-0.3,0.6-0.7,1.2-1.1,1.6c-0.4,0.4-0.9,0.8-1.5,1c-0.5,0.3-1.1,0.4-1.6,0.3
		c-0.5,0-1-0.2-1.4-0.4c-0.4-0.3-0.7-0.6-0.9-1.1c-0.3-0.6-0.3-1.2-0.1-1.8c0.2-0.6,0.6-1.1,1.1-1.5c0.1-0.1,0.4-0.3,0.9-0.7
		c0.5-0.4,0.9-0.7,1.2-0.9c0.3-0.3,0.7-0.6,1.1-0.9c-0.3-0.6-0.6-0.9-0.9-1.1c-0.3-0.2-0.8-0.1-1.4,0.2c-0.5,0.2-0.9,0.5-1.1,0.8
		c-0.2,0.3-0.3,0.6-0.4,1c-0.1,0.4-0.1,0.7-0.1,0.8c0,0.1-0.2,0.3-0.5,0.4c-0.2,0.1-0.5,0.1-0.7,0.1c-0.2-0.1-0.4-0.2-0.5-0.5
		c-0.2-0.4-0.2-0.8-0.1-1.3c0.1-0.5,0.4-1,0.8-1.4c0.5-0.5,1.1-0.9,1.9-1.3c0.9-0.4,1.7-0.7,2.4-0.7c0.6,0,1.2,0.2,1.6,0.5
		c0.4,0.4,0.8,1,1.2,1.8c0.2,0.5,0.4,0.9,0.6,1.3c0.2,0.4,0.3,0.7,0.5,1.2c0.2,0.4,0.4,0.8,0.8,1.2c0.3,0.4,0.5,0.6,0.6,0.8
		c0.1,0.2,0.1,0.5,0,0.7c-0.1,0.3-0.3,0.5-0.6,0.6c-0.2,0.1-0.5,0.1-0.8,0C91.1,31.9,90.7,31.8,90.3,31.5z M88.8,28.4
		c-0.3,0.3-0.7,0.6-1.2,1c-0.5,0.4-0.9,0.7-1.1,0.9c-0.2,0.2-0.4,0.4-0.5,0.7c-0.1,0.3-0.1,0.6,0,0.9c0.1,0.3,0.4,0.5,0.7,0.7
		c0.3,0.1,0.7,0.1,1.1-0.1c0.4-0.2,0.8-0.5,1-0.8c0.3-0.3,0.4-0.7,0.5-1.1c0-0.4-0.1-1-0.4-1.7L88.8,28.4z"/>
	<path id="XMLID_151_" d="M94.4,29.7l-3.6-9.5c-0.2-0.4-0.2-0.8-0.1-1.1s0.3-0.5,0.7-0.6c0.3-0.1,0.6-0.1,0.9,0
		c0.3,0.1,0.5,0.4,0.7,0.9l3.6,9.5c0.2,0.4,0.2,0.8,0.1,1.1c-0.1,0.3-0.3,0.5-0.7,0.6c-0.3,0.1-0.6,0.1-0.9,0
		C94.8,30.4,94.5,30.1,94.4,29.7z"/>
	<path id="XMLID_153_" d="M97,18.9c-0.3,0.1-0.6,0.1-0.9,0c-0.3-0.1-0.5-0.4-0.6-0.7c-0.1-0.3-0.1-0.6,0.1-0.9
		c0.2-0.3,0.4-0.5,0.7-0.6c0.3-0.1,0.6-0.1,0.9,0c0.3,0.1,0.5,0.3,0.6,0.7c0.1,0.3,0.1,0.6-0.1,0.9C97.5,18.7,97.3,18.8,97,18.9z
		 M98.9,20.9l2.1,6.5c0.1,0.4,0.2,0.8,0,1.1c-0.1,0.3-0.4,0.5-0.7,0.6c-0.3,0.1-0.6,0.1-0.9-0.1c-0.3-0.2-0.5-0.5-0.6-0.9l-2.1-6.4
		c-0.1-0.4-0.2-0.8,0-1.1c0.1-0.3,0.4-0.5,0.7-0.6c0.3-0.1,0.6-0.1,0.9,0.1C98.5,20.2,98.7,20.5,98.9,20.9z"/>
	<path id="XMLID_156_" d="M101.3,19l0.2-0.1l-0.4-1.4c-0.1-0.4-0.2-0.7-0.2-0.9c0-0.2,0-0.4,0-0.6c0-0.2,0.1-0.3,0.3-0.5
		c0.1-0.1,0.3-0.2,0.5-0.3c0.3-0.1,0.6,0,0.9,0.1c0.2,0.1,0.3,0.2,0.4,0.4c0.1,0.2,0.2,0.5,0.3,0.9l0.4,1.5l0.8-0.2
		c0.3-0.1,0.6-0.1,0.8,0c0.2,0.1,0.3,0.3,0.4,0.5c0.1,0.3,0,0.6-0.2,0.7c-0.2,0.2-0.5,0.3-1,0.5l-0.4,0.1l1.2,4.2
		c0.1,0.4,0.2,0.6,0.3,0.8c0.1,0.2,0.2,0.3,0.3,0.4c0.1,0.1,0.3,0.1,0.6,0c0.1,0,0.3-0.1,0.5-0.2s0.4-0.2,0.5-0.2
		c0.2-0.1,0.4,0,0.6,0.1c0.2,0.1,0.3,0.3,0.4,0.5c0.1,0.4,0,0.7-0.4,1c-0.3,0.3-0.9,0.6-1.6,0.8c-0.7,0.2-1.3,0.2-1.7,0.1
		c-0.4-0.1-0.8-0.4-1-0.8c-0.2-0.4-0.4-0.9-0.6-1.6l-1.2-4.4l-0.3,0.1c-0.3,0.1-0.6,0.1-0.8,0c-0.2-0.1-0.4-0.3-0.4-0.5
		c-0.1-0.2,0-0.5,0.1-0.7C100.7,19.2,100.9,19.1,101.3,19z"/>
	<path id="XMLID_158_" d="M111.6,26.3l0.1-0.6l-4.3-6.6c-0.3-0.4-0.4-0.7-0.4-0.8c0-0.2,0-0.4,0-0.6c0.1-0.2,0.2-0.4,0.3-0.5
		c0.2-0.1,0.3-0.2,0.5-0.3c0.3-0.1,0.6,0,0.8,0.2c0.2,0.2,0.4,0.4,0.6,0.8l3.1,5.3l0.8-5.7c0.1-0.5,0.1-0.8,0.2-1.1
		c0.1-0.3,0.2-0.5,0.3-0.6c0.1-0.1,0.3-0.2,0.5-0.2c0.2,0,0.4,0,0.5,0c0.2,0.1,0.3,0.2,0.4,0.3c0.1,0.1,0.2,0.3,0.2,0.5
		c0,0.1,0,0.3,0,0.5c0,0.2,0,0.4-0.1,0.6l-1.4,8.5c-0.1,0.7-0.3,1.3-0.4,1.8c-0.2,0.4-0.4,0.8-0.8,1.1c-0.4,0.3-0.9,0.5-1.6,0.7
		c-0.7,0.1-1.2,0.2-1.6,0.1c-0.4-0.1-0.6-0.3-0.7-0.7c-0.1-0.3,0-0.5,0.1-0.7c0.1-0.2,0.4-0.3,0.7-0.4c0.1,0,0.2,0,0.4,0
		c0.2,0,0.3,0,0.4,0c0.3-0.1,0.5-0.1,0.6-0.2s0.2-0.3,0.3-0.5C111.5,27,111.6,26.7,111.6,26.3z"/>
</g>
</svg>
